# xmcd
#
# Track frame offsets: 
#        150
#        37789
#        59260
#        84908
#        118686
#        143394
#        174865
#        200312
#        252356
#        280805
#        301142
#        325864
#
# Disc length: 4634 seconds
#
# Revision: 1
# Processed by: cddbd v1.5.2PL0 Copyright (c) Steve Scherf et al.
# Submitted via: ExactAudioCopy v0.99pb4
#
DISCID=9012180c
DTITLE=Studebaker John and The Hawks - Waiting on The Sun...
DYEAR=2008
DGENRE=Blues
TTITLE0=Down at the Bottom
TTITLE1=She Just Won't Roll
TTITLE2=Every Night is a Saturday Night
TTITLE3=Hell to Pay
TTITLE4=Partner in Crime
TTITLE5=Nothing but the Rain
TTITLE6=Natural Born Boogie
TTITLE7=Follow Your Soul
TTITLE8=Tell Me So
TTITLE9=Let It Roll On
TTITLE10=I'll Be Rockin'
TTITLE11=Waiting on the Sun
EXTD=
EXTT0=
EXTT1=
EXTT2=
EXTT3=
EXTT4=
EXTT5=
EXTT6=
EXTT7=
EXTT8=
EXTT9=
EXTT10=
EXTT11=
PLAYORDER=
